<svg xmlns="http://www.w3.org/2000/svg" width="457" height="213" fill="none"><path fill="#fff" d="m380 76 26-74h25l26 74h-20l-4-14h-29l-4 14h-20Zm36-52-7 24h20l-8-24-1-4-1-4v-2l-1 1v2a42 42 0 0 1-2 7ZM298 76V2h20l28 38 2 3 2 4 1 3 2 3-1-3V2h19v74h-19l-28-38-3-4-2-4-1-3-1-2a86 86 0 0 1 1 14v37h-20Zm-88-55c4-7 9-12 15-15a41 41 0 0 1 34-3l9 4c5 3 9 8 12 14s5 12 5 19v4a39 39 0 0 1-3 10c-3 7-8 13-15 17s-14 7-22 7l-1-1h-2a42 42 0 0 1-15-4c-7-3-12-8-15-14-4-7-6-13-6-20v-3l1-3 1-6 2-6Zm53 26 1-2v-4l1-2-1-1v-1c0-4-1-7-3-10-1-3-3-6-6-7l-3-1-2-1h-2l-2-1c-4 0-8 2-11 4-4 3-6 6-7 10l-1 1v2l-1 2v5c0 4 2 8 4 12s5 6 9 7l2 1h4c4 0 8-1 11-4 3-2 6-5 7-10Zm-82 22-12 5-13 2h-27V2h29l12 2a31 31 0 0 1 21 17c3 5 4 10 4 15l1 1v3l-4 16c-3 5-6 10-11 13Zm-32-10h8l5-1 6-2 5-7 2-10v-2l-2-8-5-7-6-3h-13v40ZM69 76V2h45v16H89v13h24v16H89v12h25v17H69ZM9 52h1l7 7c2 2 6 3 9 3h3l3-2c2 0 3-1 3-2v-1h1v-3c0-2-1-4-3-5a21 21 0 0 0-8-4l-2-1h-1l-10-4c-4-2-6-5-7-9l-1-3v-8l1-4 2-4c3-5 6-7 10-9a29 29 0 0 1 15-3l3 1a45 45 0 0 1 16 6l-6 14-7-4-7-2h-1c-2 0-3 1-5 3-2 1-2 2-2 4v1l1 2 1 1 4 2 5 2a247 247 0 0 1 8 2c4 1 7 4 9 8 3 3 4 7 4 11v3l-4 12c-2 3-5 6-9 8a29 29 0 0 1-8 3h-8A42 42 0 0 1 0 67l9-15Zm342 147v-1l1-1h3l1 1 1 1v1l-1 2-1 2-1 1h-1v1h-1l-1-2h1l1-1v-1l1-1h-2l-1-2Zm8 0v-1l1-1h3l1 1v1l1 1-1 2-1 2a5 5 0 0 1-2 1l-1 1-1-2h1v-1l1-1v-1h-1l-1-2ZM94 140v2a3 3 0 0 1-4 1l-1-1v-1l-1-1 1-3 1-2h1l1-1h1v-1l1 2v1h-1l-1 1v1l1 1 1 1Zm-8 0v2l-1 1h-2l-2-1v-5l1-2h1l1-1h1v-1l2 2-1 1h-1l-1 1v1l2 1v1Zm246 57h4l11-20h-3l-12 20Zm0 2c-2 0-3 1-3 2s1 2 3 2l2-2-2-2Zm-27-6 1-2c5-6 8-4 6-2l-1 3c-2 2-5 4-6 1Zm25 3-1-1-5 4 3-14-2-1-9 11c-3 3-5 6-7 6-1 0-2-1-2-3v-1c3 0 6-2 8-5l1-1c3-6-3-8-7-5l6-9h-4l-11 18h-1c-2 3-6 6-9 6-2 0-3-2-2-5l4-6c2-4 6-3 4 0v1h3v-1c2-3 0-6-3-6s-5 2-7 5l-4 6c-3 4-6 6-7 6l-1-2 9-14h-4l-7 12c-3 2-5 4-6 3l1-2 7-13h-4l-7 12-3 2 3-14-3-1-13 18 1 1 11-14c-2 4-1 11-5 11l-1-1-3 1s1 3 4 3h2l6-2 2 2c3 0 5-2 7-3-1 2 0 3 3 3l7-4c0 2 2 4 5 4s6-2 9-4l-2 4h4l4-8v3c0 4 1 5 4 5s6-3 10-7l5-7c-2 4-1 11-4 11l-2-1-3 1s1 3 5 3h1c4 0 8-4 10-7Zm-114-1c-2 0-3 1-3 2l1 2c-2 3-6 2-4-2l3-5 2-3c2-4 6-3 4 1l-3 5Zm-26 14c0 2-2 1-2 0l4-3-2 3Zm-28-14c-3 4-5 6-7 6v-2l5-10c2-3 6-2 5 1l-3 5Zm-12-14 3-3 2 2c0 4-4 11-10 10h-1l6-9Zm92 14c-3 3-5 6-7 6v-2l5-10c2-3 0-5-2-5s-3 1-5 3l1-2h-4l-6 10-6 3 3-6c3-4 1-8-3-8-3 0-5 1-7 5l-2 3-2 3c-3 4-6 6-9 7l10-17h-4l-6 11-6 4v-3l8-12h-4l-6 10h-1c-2 3-5 6-7 6v-2l5-10c2-3 0-5-2-5l-5 3 2-3h-4l-6 11h-1c-3 3-5 6-7 6v-2l6-11h-2c0-2-2-4-4-4l-7 4-4 7h-1c-3 3-5 6-8 6s-5-3-2-7l1-2 2 1c4 0 8-3 11-8 2-2 2-3 2-5 0-3-2-5-5-5-2 0-5 1-6 4l-6 10c-2-1-4-3-4-5s1-4 3-5l-1-2c-3 2-4 4-4 7s1 6 5 7l-2 2c-2 5-1 10 5 10 4 0 6-2 8-5 0 3 1 5 3 5l6-3c0 2 1 3 3 3l6-3-2 2h4l6-10c6-7 8-6 6-3l-4 8c-2 3-1 6 2 6l7-4c-1 2 0 4 2 4l6-3-3 3c-5 2-8 4-8 7s6 4 8 0l3-5c4-1 7-3 10-7-1 6 6 7 11 1l5-1-2 4h4l5-10c6-7 9-6 7-3l-5 8c-1 3 0 6 3 6s6-4 10-7l-2-1Zm119-36c-2 4-5 6-6 6s-2-1-1-2l6-10c2-3 6-2 4 1l-3 5Zm-36 0-6 6c-1 0-2-1-1-2l6-10c2-3 6-2 4 1l-3 5Zm-40 14c-1 2-2 1-2 0l4-3-2 3Zm8-28 3-3c6 0 2 14-8 12h-1l6-9Zm78 14h-1c-2 3-5 6-7 6v-2l13-22h-4l-6 9-3-2c-2 0-5 2-7 5l-3 6h-1c-3 3-5 6-7 6v-2l5-10c2-3 1-5-2-5l-5 3 2-2h-4l-6 10h-1c-3 3-5 6-7 6v-2l6-11h-2c0-2-2-4-4-4s-5 2-7 5l-3 6h-1c-2 3-5 6-7 6v-2l3-7c2-2 1-3 0-5l-2-2v-3l-2-2c-2 2-2 4-1 6l-6 9c-3 4-6 6-9 7l5-8h-4v1c-2 3-4 6-7 6s-3-3-1-6l1-2h2c14 0 20-18 8-18-2 0-4 1-6 4l-6 10c-2-1-3-3-3-5l2-5-1-2c-3 2-4 4-4 7s2 6 5 7l-1 2c-3 5-2 10 3 10l4-1-1 2c-5 1-8 3-8 6 0 4 5 5 8 0l3-5c4-1 8-4 12-9l6-8v3l-4 7c-1 2 0 5 3 5l6-3c0 2 2 3 4 3l5-2c0 1 1 2 3 2l6-3-1 3h3l6-10c6-8 9-7 7-4l-5 9c-2 2-1 5 3 5l6-3c-1 2 1 3 3 3l5-3c0 2 1 3 3 3 3 0 7-3 10-7l-1-1Zm-113-5c2-4 6-4 4 0v1c-2 3-5 3-6 3l2-4Zm-3 13c5 0 9-3 12-7l-1-1h-1c-2 3-6 6-9 6-2 0-3-2-2-5h1c2 1 7 0 10-5v-1c2-3 0-6-3-6s-5 2-7 5l-4 6-7 6-1-2 6-10c1-3 0-5-2-5s-4 1-5 3l6-10h-4l-11 18h-1c-2 3-5 6-7 6v-2l8-14h3l1-2h-3l4-6h-4l-4 6h-3l-1 2h3l-7 13c-2 3-1 5 2 5l6-3-1 3h3l6-10c6-7 9-7 7-4l-5 9c-2 3 0 5 3 5l7-4c0 2 2 4 5 4Zm-127-13c2-4 6-4 4 0l-1 1c-2 3-4 3-6 3l3-4Zm23 9 5-9c2-4 6-3 4 0l-3 6c-2 3-4 5-6 5v-2Zm54-9c2-4 6-4 4 0l-1 1c-2 3-4 3-6 3l3-4Zm-58 9c-1 2 1 4 3 4l5-2 4 2 6-3c0 2 1 3 2 3 3 0 5-2 7-3-1 2 0 3 3 3s7-3 10-7l5-7c-2 4-1 11-5 11l-1-1-3 1s1 3 4 3h2l7-4c1 2 2 4 6 4s8-3 11-7l-1-1c-3 3-7 6-9 6-3 0-4-2-2-5 2 1 7 0 10-5v-1c2-3 0-6-3-6s-5 2-7 5l-3 6h-1l-4 4 3-14-3-1-8 11-7 6c-1 0-2-1-1-2l8-14h-3l-7 11-6 4 1-3 7-12h-4l-6 10-7 6c-1 0-2-1-1-2l6-11h-2c0-2-1-4-4-4-2 0-5 2-6 5l-4 6h-1c-3 3-6 6-8 6-3 0-4-2-2-5l3-7c3-3 6-3 4 1v1h3v-1c2-3 0-6-3-6s-5 2-6 5l-4 6h-1c-2 3-6 6-8 6-3 0-4-2-2-5 2 1 7 0 10-5v-1c2-3 0-6-3-6s-5 2-7 5l-4 6c-2 4 0 8 4 8s6-2 9-5c0 3 2 5 5 5 4 0 6-2 9-4Zm-37-14 3-5c3-5 7-2 5 1s-4 4-8 4Zm-4 17-5-1 2-3 6-11h1c9 2 5 15-4 15Zm9-15c8-3 9-12 1-12-2 0-4 1-6 4l-10 18-2 2c-2-4-2-9 2-11l-1-2c-8 5-6 19 7 19 11 0 17-13 9-18Z"/></svg>